<?xml version="1.0" encoding="UTF-8"?><svg id="_イヤー_1" xmlns="http://www.w3.org/2000/svg" viewBox="0 0 4477.93 1749.08"><defs><style>.cls-1{fill:#009245;}.cls-2{fill:#fff;}.cls-3{fill:#333;}.cls-4{fill:#ccc;}.cls-5{fill:#231815;}.cls-6{fill:#1a1a1a;}.cls-7{fill:rgba(255,255,255,.3);}.cls-8{letter-spacing:.25em;}.cls-9{font-size:16px;}.cls-9,.cls-10,.cls-11,.cls-12,.cls-13,.cls-14,.cls-15{font-family:KozGoPr6N-Regular-83pv-RKSJ-H, 'Kozuka Gothic Pr6N';}.cls-10{font-size:8.97px;letter-spacing:.03em;}.cls-16{stroke-width:.99px;}.cls-16,.cls-17{fill:none;}.cls-16,.cls-17,.cls-14{stroke:#000;stroke-miterlimit:10;}.cls-11{font-size:14.57px;letter-spacing:.03em;}.cls-12,.cls-14{font-size:21.47px;}.cls-13{font-size:10.4px;letter-spacing:.03em;}.cls-18{letter-spacing:-.5em;}.cls-19{letter-spacing:-.5em;}.cls-14{stroke-width:.71px;}.cls-15{font-size:11.19px;letter-spacing:.03em;}</style></defs><text class="cls-14" transform="translate(.35 681.94)"><tspan x="0" y="0">コンセプト</tspan></text><text class="cls-12" transform="translate(.35 716.45)"><tspan x="0" y="0">自分で撮った写真のポートフォリオサイト（＋販売</tspan><tspan class="cls-19" x="493.84" y="0">）</tspan></text><text class="cls-9" transform="translate(.35 770.42)"><tspan x="0" y="0">ページ構成</tspan><tspan x="0" y="28">○トップページ</tspan><tspan x="0" y="56">　・HOME</tspan><tspan x="0" y="84">　・プロフィール　</tspan><tspan class="cls-8" x="144" y="84">/</tspan><tspan x="154.1" y="84">顔写真、年表（英語でも</tspan><tspan class="cls-18" x="330.1" y="84">）</tspan><tspan x="338.1" y="84">、SN</tspan><tspan class="cls-8" x="373.84" y="84">S</tspan><tspan x="386.27" y="84">のリンク</tspan><tspan x="0" y="112">　・ワーク　</tspan><tspan class="cls-8" x="96" y="112">/</tspan><tspan x="106.1" y="112">写真、それぞれリンク</tspan><tspan x="0" y="140"> </tspan><tspan class="cls-18" x="3.73" y="140"> </tspan><tspan x="-.54" y="140">（・ショップ</tspan><tspan class="cls-18" x="95.46" y="140">）</tspan><tspan x="0" y="196">○デザイン</tspan><tspan x="0" y="224">　・ネガフィルムのようなデザイン</tspan><tspan x="0" y="252">　・シャッターを切るようにページが移動</tspan></text><rect class="cls-16" x="806.93" y="1023.84" width="162" height="162"/><rect class="cls-16" x="1116.43" y="1197.34" width="94" height="94"/><rect class="cls-16" x="1116.43" y="919.34" width="94" height="94"/><rect class="cls-16" x="1266.43" y="874.34" width="52" height="52"/><rect class="cls-16" x="1266.43" y="939.34" width="52" height="52"/><rect class="cls-16" x="1266.43" y="1004.34" width="52" height="52"/><text class="cls-11" transform="translate(829.42 1104.53) scale(1.34 1.38)"><tspan x="0" y="0">ページトップ</tspan></text><line class="cls-17" x1="968.93" y1="1104.84" x2="1041.93" y2="1104.84"/><line class="cls-17" x1="1209.93" y1="965.34" x2="1266.43" y2="965.34"/><polyline class="cls-17" points="1115.93 1244.34 1041.93 1244.34 1041.93 1243.84 1041.93 965.84 1115.93 965.84"/><polyline class="cls-17" points="1266.93 1032.34 1232.93 1032.34 1232.93 1032.1 1232.93 899.84 1266.93 899.84"/><text class="cls-15" transform="translate(1121.86 969.66) scale(1.2 1.38)"><tspan x="0" y="0">プロフィール</tspan></text><text class="cls-15" transform="translate(1140.4 1244.66) scale(1.2 1.38)"><tspan x="0" y="0">ワーク</tspan></text><rect class="cls-16" x="1268.43" y="1185.34" width="52" height="52"/><rect class="cls-16" x="1268.43" y="1250.34" width="52" height="52"/><line class="cls-17" x1="1210.83" y1="1244.35" x2="1233.43" y2="1244.35"/><polyline class="cls-17" points="1267.83 1279.36 1233.83 1279.36 1233.83 1279.24 1233.83 1210.84 1267.83 1210.84"/><text class="cls-13" transform="translate(1277.92 902.97) scale(1.34 1.38)"><tspan x="0" y="0">画像</tspan></text><text class="cls-13" transform="translate(1277.92 969.97) scale(1.34 1.38)"><tspan x="0" y="0">年表</tspan></text><text class="cls-13" transform="translate(1270.76 1035.97) scale(1.34 1.38)"><tspan x="0" y="0">リンク</tspan></text><text class="cls-13" transform="translate(1279.92 1215.97) scale(1.34 1.38)"><tspan x="0" y="0">写真</tspan></text><text class="cls-10" transform="translate(1269.54 1276.46) scale(1.34 1.38)"><tspan x="0" y="0">それぞれ</tspan><tspan x="4.61" y="9.3">リンク</tspan></text><g><rect class="cls-6" x="2557.84" y="1181.61" width="630.08" height="567.47"/><rect class="cls-4" x="2632.37" y="1181.61" width="480.86" height="142.12"/><rect class="cls-4" x="2632.37" y="1341.62" width="481.01" height="265.35"/><g><rect class="cls-3" x="2558.08" y="1181.61" width="74.54" height="567.47"/><g><rect class="cls-2" x="2578.46" y="1191.55" width="33.79" height="47.7" rx="8.5" ry="8.5"/><rect class="cls-2" x="2578.46" y="1265.1" width="33.79" height="47.7" rx="8.5" ry="8.5"/><rect class="cls-2" x="2578.46" y="1338.64" width="33.79" height="47.7" rx="8.5" ry="8.5"/><rect class="cls-2" x="2578.46" y="1412.18" width="33.79" height="47.7" rx="8.5" ry="8.5"/><rect class="cls-2" x="2578.46" y="1474.79" width="33.79" height="47.7" rx="8.5" ry="8.5"/><rect class="cls-2" x="2578.46" y="1548.33" width="33.79" height="47.7" rx="8.5" ry="8.5"/><rect class="cls-2" x="2578.46" y="1621.87" width="33.79" height="47.7" rx="8.5" ry="8.5"/><rect class="cls-2" x="2578.46" y="1695.42" width="33.79" height="47.7" rx="8.5" ry="8.5"/></g></g><g><rect class="cls-3" x="3113.63" y="1181.61" width="74.54" height="567.47"/><g><rect class="cls-2" x="3134" y="1191.55" width="33.79" height="47.7" rx="8.5" ry="8.5"/><rect class="cls-2" x="3134" y="1265.1" width="33.79" height="47.7" rx="8.5" ry="8.5"/><rect class="cls-2" x="3134" y="1338.64" width="33.79" height="47.7" rx="8.5" ry="8.5"/><rect class="cls-2" x="3134" y="1412.18" width="33.79" height="47.7" rx="8.5" ry="8.5"/><rect class="cls-2" x="3134" y="1474.79" width="33.79" height="47.7" rx="8.5" ry="8.5"/><rect class="cls-2" x="3134" y="1548.33" width="33.79" height="47.7" rx="8.5" ry="8.5"/><rect class="cls-2" x="3134" y="1621.87" width="33.79" height="47.7" rx="8.5" ry="8.5"/><rect class="cls-2" x="3134" y="1695.42" width="33.79" height="47.7" rx="8.5" ry="8.5"/></g></g><rect class="cls-4" x="2632.37" y="1624.86" width="481.01" height="124.23"/></g><g><rect class="cls-6" x="3202.72" y="1181.61" width="630.08" height="567.47"/><rect class="cls-4" x="3277.26" y="1181.61" width="480.86" height="142.12"/><rect class="cls-4" x="3277.26" y="1341.62" width="481.01" height="265.35"/><g><rect class="cls-3" x="3202.97" y="1181.61" width="74.54" height="567.47"/><g><rect class="cls-2" x="3223.34" y="1191.55" width="33.79" height="47.7" rx="8.5" ry="8.5"/><rect class="cls-2" x="3223.34" y="1265.1" width="33.79" height="47.7" rx="8.5" ry="8.5"/><rect class="cls-2" x="3223.34" y="1338.64" width="33.79" height="47.7" rx="8.5" ry="8.5"/><rect class="cls-2" x="3223.34" y="1412.18" width="33.79" height="47.7" rx="8.5" ry="8.5"/><rect class="cls-2" x="3223.34" y="1474.79" width="33.79" height="47.7" rx="8.5" ry="8.5"/><rect class="cls-2" x="3223.34" y="1548.33" width="33.79" height="47.7" rx="8.5" ry="8.5"/><rect class="cls-2" x="3223.34" y="1621.87" width="33.79" height="47.7" rx="8.5" ry="8.5"/><rect class="cls-2" x="3223.34" y="1695.42" width="33.79" height="47.7" rx="8.5" ry="8.5"/></g></g><g><rect class="cls-3" x="3758.51" y="1181.61" width="74.54" height="567.47"/><g><rect class="cls-2" x="3778.88" y="1191.55" width="33.79" height="47.7" rx="8.5" ry="8.5"/><rect class="cls-2" x="3778.88" y="1265.1" width="33.79" height="47.7" rx="8.5" ry="8.5"/><rect class="cls-2" x="3778.88" y="1338.64" width="33.79" height="47.7" rx="8.5" ry="8.5"/><rect class="cls-2" x="3778.88" y="1412.18" width="33.79" height="47.7" rx="8.5" ry="8.5"/><rect class="cls-2" x="3778.88" y="1474.79" width="33.79" height="47.7" rx="8.5" ry="8.5"/><rect class="cls-2" x="3778.88" y="1548.33" width="33.79" height="47.7" rx="8.5" ry="8.5"/><rect class="cls-2" x="3778.88" y="1621.87" width="33.79" height="47.7" rx="8.5" ry="8.5"/><rect class="cls-2" x="3778.88" y="1695.42" width="33.79" height="47.7" rx="8.5" ry="8.5"/></g></g><rect class="cls-4" x="3277.26" y="1624.86" width="481.01" height="124.23"/></g><g><rect class="cls-6" x="3847.61" y="1181.61" width="630.08" height="567.47"/><rect class="cls-4" x="3922.14" y="1181.61" width="480.86" height="142.12"/><rect class="cls-4" x="3922.14" y="1341.62" width="481.01" height="265.35"/><g><rect class="cls-3" x="3847.85" y="1181.61" width="74.54" height="567.47"/><g><rect class="cls-2" x="3868.23" y="1191.55" width="33.79" height="47.7" rx="8.5" ry="8.5"/><rect class="cls-2" x="3868.23" y="1265.1" width="33.79" height="47.7" rx="8.5" ry="8.5"/><rect class="cls-2" x="3868.23" y="1338.64" width="33.79" height="47.7" rx="8.5" ry="8.5"/><rect class="cls-2" x="3868.23" y="1412.18" width="33.79" height="47.7" rx="8.5" ry="8.5"/><rect class="cls-2" x="3868.23" y="1474.79" width="33.79" height="47.7" rx="8.5" ry="8.5"/><rect class="cls-2" x="3868.23" y="1548.33" width="33.79" height="47.7" rx="8.5" ry="8.5"/><rect class="cls-2" x="3868.23" y="1621.87" width="33.79" height="47.7" rx="8.5" ry="8.5"/><rect class="cls-2" x="3868.23" y="1695.42" width="33.79" height="47.7" rx="8.5" ry="8.5"/></g></g><g><rect class="cls-3" x="4403.4" y="1181.61" width="74.54" height="567.47"/><g><rect class="cls-2" x="4423.77" y="1191.55" width="33.79" height="47.7" rx="8.5" ry="8.5"/><rect class="cls-2" x="4423.77" y="1265.1" width="33.79" height="47.7" rx="8.5" ry="8.5"/><rect class="cls-2" x="4423.77" y="1338.64" width="33.79" height="47.7" rx="8.5" ry="8.5"/><rect class="cls-2" x="4423.77" y="1412.18" width="33.79" height="47.7" rx="8.5" ry="8.5"/><rect class="cls-2" x="4423.77" y="1474.79" width="33.79" height="47.7" rx="8.5" ry="8.5"/><rect class="cls-2" x="4423.77" y="1548.33" width="33.79" height="47.7" rx="8.5" ry="8.5"/><rect class="cls-2" x="4423.77" y="1621.87" width="33.79" height="47.7" rx="8.5" ry="8.5"/><rect class="cls-2" x="4423.77" y="1695.42" width="33.79" height="47.7" rx="8.5" ry="8.5"/></g></g><rect class="cls-4" x="3922.14" y="1624.86" width="481.01" height="124.23"/></g><rect class="cls-6" x="2557.84" y="889.84" width="630.08" height="289.24"/><rect class="cls-4" x="2632.37" y="905.84" width="481.01" height="131.13"/><rect class="cls-3" x="2558.08" y="889.84" width="74.54" height="289.24"/><rect class="cls-2" x="2578.46" y="904.79" width="33.79" height="47.7" rx="8.5" ry="8.5"/><rect class="cls-2" x="2578.46" y="978.33" width="33.79" height="47.7" rx="8.5" ry="8.5"/><rect class="cls-2" x="2578.46" y="1051.87" width="33.79" height="47.7" rx="8.5" ry="8.5"/><rect class="cls-2" x="2578.46" y="1125.42" width="33.79" height="47.7" rx="8.5" ry="8.5"/><rect class="cls-3" x="3113.63" y="889.84" width="74.54" height="289.24"/><rect class="cls-2" x="3134" y="904.79" width="33.79" height="47.7" rx="8.5" ry="8.5"/><rect class="cls-2" x="3134" y="978.33" width="33.79" height="47.7" rx="8.5" ry="8.5"/><rect class="cls-2" x="3134" y="1051.87" width="33.79" height="47.7" rx="8.5" ry="8.5"/><rect class="cls-2" x="3134" y="1125.42" width="33.79" height="47.7" rx="8.5" ry="8.5"/><rect class="cls-4" x="2632.37" y="1054.86" width="481.01" height="124.23"/><g><rect class="cls-6" x="3202.72" y="611.61" width="630.08" height="567.47"/><rect class="cls-4" x="3277.26" y="611.61" width="480.86" height="142.12"/><rect class="cls-4" x="3277.26" y="771.62" width="481.01" height="265.35"/><g><rect class="cls-3" x="3202.97" y="611.61" width="74.54" height="567.47"/><g><rect class="cls-2" x="3223.34" y="621.55" width="33.79" height="47.7" rx="8.5" ry="8.5"/><rect class="cls-2" x="3223.34" y="695.1" width="33.79" height="47.7" rx="8.5" ry="8.5"/><rect class="cls-2" x="3223.34" y="768.64" width="33.79" height="47.7" rx="8.5" ry="8.5"/><rect class="cls-2" x="3223.34" y="842.18" width="33.79" height="47.7" rx="8.5" ry="8.5"/><rect class="cls-2" x="3223.34" y="904.79" width="33.79" height="47.7" rx="8.5" ry="8.5"/><rect class="cls-2" x="3223.34" y="978.33" width="33.79" height="47.7" rx="8.5" ry="8.5"/><rect class="cls-2" x="3223.34" y="1051.87" width="33.79" height="47.7" rx="8.5" ry="8.5"/><rect class="cls-2" x="3223.34" y="1125.42" width="33.79" height="47.7" rx="8.5" ry="8.5"/></g></g><g><rect class="cls-3" x="3758.51" y="611.61" width="74.54" height="567.47"/><g><rect class="cls-2" x="3778.88" y="621.55" width="33.79" height="47.7" rx="8.5" ry="8.5"/><rect class="cls-2" x="3778.88" y="695.1" width="33.79" height="47.7" rx="8.5" ry="8.5"/><rect class="cls-2" x="3778.88" y="768.64" width="33.79" height="47.7" rx="8.5" ry="8.5"/><rect class="cls-2" x="3778.88" y="842.18" width="33.79" height="47.7" rx="8.5" ry="8.5"/><rect class="cls-2" x="3778.88" y="904.79" width="33.79" height="47.7" rx="8.5" ry="8.5"/><rect class="cls-2" x="3778.88" y="978.33" width="33.79" height="47.7" rx="8.5" ry="8.5"/><rect class="cls-2" x="3778.88" y="1051.87" width="33.79" height="47.7" rx="8.5" ry="8.5"/><rect class="cls-2" x="3778.88" y="1125.42" width="33.79" height="47.7" rx="8.5" ry="8.5"/></g></g><rect class="cls-4" x="3277.26" y="1054.86" width="481.01" height="124.23"/></g><g><rect class="cls-6" x="3847.61" y="611.61" width="630.08" height="567.47"/><rect class="cls-4" x="3922.14" y="611.61" width="480.86" height="142.12"/><rect class="cls-4" x="3922.14" y="771.62" width="481.01" height="265.35"/><g><rect class="cls-3" x="3847.85" y="611.61" width="74.54" height="567.47"/><g><rect class="cls-2" x="3868.23" y="621.55" width="33.79" height="47.7" rx="8.5" ry="8.5"/><rect class="cls-2" x="3868.23" y="695.1" width="33.79" height="47.7" rx="8.5" ry="8.5"/><rect class="cls-2" x="3868.23" y="768.64" width="33.79" height="47.7" rx="8.5" ry="8.5"/><rect class="cls-2" x="3868.23" y="842.18" width="33.79" height="47.7" rx="8.5" ry="8.5"/><rect class="cls-2" x="3868.23" y="904.79" width="33.79" height="47.7" rx="8.5" ry="8.5"/><rect class="cls-2" x="3868.23" y="978.33" width="33.79" height="47.7" rx="8.5" ry="8.5"/><rect class="cls-2" x="3868.23" y="1051.87" width="33.79" height="47.7" rx="8.5" ry="8.5"/><rect class="cls-2" x="3868.23" y="1125.42" width="33.79" height="47.7" rx="8.5" ry="8.5"/></g></g><g><rect class="cls-3" x="4403.4" y="611.61" width="74.54" height="567.47"/><g><rect class="cls-2" x="4423.77" y="621.55" width="33.79" height="47.7" rx="8.5" ry="8.5"/><rect class="cls-2" x="4423.77" y="695.1" width="33.79" height="47.7" rx="8.5" ry="8.5"/><rect class="cls-2" x="4423.77" y="768.64" width="33.79" height="47.7" rx="8.5" ry="8.5"/><rect class="cls-2" x="4423.77" y="842.18" width="33.79" height="47.7" rx="8.5" ry="8.5"/><rect class="cls-2" x="4423.77" y="904.79" width="33.79" height="47.7" rx="8.5" ry="8.5"/><rect class="cls-2" x="4423.77" y="978.33" width="33.79" height="47.7" rx="8.5" ry="8.5"/><rect class="cls-2" x="4423.77" y="1051.87" width="33.79" height="47.7" rx="8.5" ry="8.5"/><rect class="cls-2" x="4423.77" y="1125.42" width="33.79" height="47.7" rx="8.5" ry="8.5"/></g></g><rect class="cls-4" x="3922.14" y="1054.86" width="481.01" height="124.23"/></g><g><rect class="cls-1" x="1683.93" y="218.84" width="634.5" height="267.5"/><rect class="cls-5" x="1996.93" y="218.84" width="321" height="51"/><rect class="cls-5" x="1683.93" y="357.84" width="287" height="128.5"/><g><path class="cls-2" d="M1724.49,409.24c0,.85,.42,1.28,1.26,1.28v1.28h-8.84v-1.28c.27,0,.51-.11,.72-.32,.21-.21,.32-.53,.32-.96v-28.33h-9.47c-.34,0-.68,.12-1,.36-.33,.24-.49,.69-.49,1.35h-1.03v-9.97h1.03c0,.67,.16,1.12,.49,1.35,.33,.24,.66,.36,1,.36h25.49c.34,0,.68-.12,1-.36,.33-.24,.49-.69,.49-1.35h1.03v9.97h-1.03c0-.66-.16-1.11-.49-1.35-.33-.24-.66-.36-1-.36h-9.47v28.33Z"/><path class="cls-2" d="M1739.65,410.52c.46-.09,.83-.37,1.12-.82,.29-.45,.51-.87,.66-1.25l8.55-23.13c.23-.66,.41-1.2,.54-1.6,.13-.4,.2-.79,.2-1.17,0-.28-.05-.46-.14-.53-.1-.07-.2-.15-.32-.25v-1.28h8.67v1.28c-.12,.1-.24,.17-.37,.21-.13,.05-.2,.24-.2,.57,0,.28,.09,.63,.26,1.03,.17,.4,.35,.87,.55,1.39l9.3,24.2c.19,.43,.4,.74,.63,.93,.23,.19,.48,.33,.75,.43v1.28h-8.15v-1.07c.19,0,.39-.07,.6-.21,.21-.14,.32-.4,.32-.78,0-.28-.04-.54-.12-.78-.08-.24-.17-.54-.29-.93l-1.55-4.06h-12.28l-1.61,3.84c-.15,.38-.28,.72-.37,1.03-.1,.31-.14,.58-.14,.82,0,.38,.09,.62,.29,.71,.19,.1,.46,.14,.8,.14v1.28h-7.69v-1.28Zm19.17-11.82l-4.65-11.96-4.08,11.96h8.73Z"/><path class="cls-2" d="M1781.38,409.45c0,.71,.36,1.07,1.09,1.07v1.28h-7.52v-1.28c.61,0,.92-.36,.92-1.07v-26.62c0-.71-.31-1.07-.92-1.07v-1.28h7.52v1.28c-.73,0-1.09,.36-1.09,1.07v11.6c1.3-1.33,2.64-2.67,4.02-4.02,1.38-1.35,2.62-2.6,3.73-3.74,1.11-1.14,2.03-2.1,2.76-2.88,.73-.78,1.09-1.27,1.09-1.46,0-.24-.11-.43-.32-.57-.21-.14-.41-.21-.6-.21v-1.07h9.47v1.28c-.46,.19-1.15,.74-2.07,1.64l-9.59,9.61,9.07,13.95c.46,.71,.96,1.44,1.49,2.17,.54,.74,1.07,1.2,1.61,1.39v1.28h-8.5v-1.28c.42,0,.63-.14,.63-.43,0-.19-.09-.45-.26-.78-.17-.33-.51-.85-1-1.57l-7.06-10.68-4.48,4.41v7.97Z"/><path class="cls-2" d="M1807.79,410.52c.61,0,1.03-.08,1.26-.25,.23-.17,.34-.44,.34-.82v-26.62c0-.38-.11-.65-.34-.82-.23-.17-.65-.25-1.26-.25v-1.28h8.73v1.28c-1.07,0-1.61,.36-1.61,1.07v26.62c0,.71,.54,1.07,1.61,1.07v1.28h-8.73v-1.28Z"/><path class="cls-2" d="M1825.18,382.97c-.27-.43-.59-.74-.98-.93-.38-.19-.75-.28-1.09-.28v-1.28h9.47v1.28c-.19,0-.4,.08-.63,.25-.23,.17-.34,.39-.34,.68s.08,.55,.23,.78c.15,.24,.32,.52,.52,.85l5.8,9.4,5.11-8.83c.34-.62,.6-1.08,.77-1.39,.17-.31,.26-.6,.26-.89,0-.38-.1-.62-.29-.71-.19-.09-.38-.14-.57-.14v-1.28h8.78v1.28c-.46,0-.97,.32-1.52,.96-.56,.64-1.04,1.29-1.46,1.96l-8.78,14.09v10.68c0,.71,.36,1.07,1.09,1.07v1.28h-7.63v-1.28c.69,0,1.03-.36,1.03-1.07v-10.96l-9.76-15.52Z"/><path class="cls-2" d="M1854.51,410.52c.46-.09,.83-.37,1.12-.82,.29-.45,.51-.87,.66-1.25l8.55-23.13c.23-.66,.41-1.2,.54-1.6,.13-.4,.2-.79,.2-1.17,0-.28-.05-.46-.14-.53-.1-.07-.2-.15-.32-.25v-1.28h8.67v1.28c-.12,.1-.24,.17-.37,.21-.13,.05-.2,.24-.2,.57,0,.28,.09,.63,.26,1.03,.17,.4,.35,.87,.55,1.39l9.3,24.2c.19,.43,.4,.74,.63,.93,.23,.19,.48,.33,.75,.43v1.28h-8.15v-1.07c.19,0,.39-.07,.6-.21,.21-.14,.32-.4,.32-.78,0-.28-.04-.54-.12-.78-.08-.24-.17-.54-.29-.93l-1.55-4.06h-12.28l-1.61,3.84c-.15,.38-.28,.72-.37,1.03-.1,.31-.14,.58-.14,.82,0,.38,.09,.62,.29,.71,.19,.1,.46,.14,.8,.14v1.28h-7.69v-1.28Zm19.17-11.82l-4.65-11.96-4.08,11.96h8.73Z"/><path class="cls-2" d="M1890.91,410.52c.19-.05,.35-.14,.49-.28,.13-.14,.2-.47,.2-1v-26.05c0-.66-.05-1.07-.14-1.21-.1-.14-.28-.21-.54-.21v-1.28h7.98v1.28c-.38,0-.57,.21-.57,.64,0,.19,.07,.44,.2,.75,.13,.31,.33,.75,.6,1.32l7,16.02,7.06-15.94c.27-.57,.48-1.03,.63-1.39,.15-.36,.23-.6,.23-.75,0-.43-.15-.64-.46-.64v-1.28h8.09v1.28c-.19,0-.37,.06-.54,.18-.17,.12-.26,.37-.26,.75v26.76c0,.38,.09,.65,.26,.82,.17,.17,.35,.25,.54,.25v1.28h-6.66v-1.28c.8,0,1.15-.36,1.03-1.07v-20h-.12l-9.76,22.35h-.46l-9.24-22.35h-.06v20c0,.71,.32,1.07,.98,1.07v1.28h-6.49v-1.28Z"/><path class="cls-2" d="M1927.88,410.52c.46-.09,.83-.37,1.12-.82,.29-.45,.51-.87,.66-1.25l8.55-23.13c.23-.66,.41-1.2,.54-1.6,.13-.4,.2-.79,.2-1.17,0-.28-.05-.46-.14-.53-.1-.07-.2-.15-.32-.25v-1.28h8.67v1.28c-.12,.1-.24,.17-.37,.21-.13,.05-.2,.24-.2,.57,0,.28,.09,.63,.26,1.03,.17,.4,.35,.87,.55,1.39l9.3,24.2c.19,.43,.4,.74,.63,.93,.23,.19,.48,.33,.75,.43v1.28h-8.15v-1.07c.19,0,.39-.07,.6-.21,.21-.14,.32-.4,.32-.78,0-.28-.04-.54-.12-.78-.08-.24-.17-.54-.29-.93l-1.55-4.06h-12.28l-1.61,3.84c-.15,.38-.28,.72-.37,1.03-.1,.31-.14,.58-.14,.82,0,.38,.09,.62,.29,.71,.19,.1,.46,.14,.8,.14v1.28h-7.69v-1.28Zm19.17-11.82l-4.65-11.96-4.08,11.96h8.73Z"/><path class="cls-2" d="M1727.94,434.32c1.84,0,3.5,.2,4.99,.6,1.49,.4,2.77,1.04,3.85,1.92,1.07,.88,1.89,2.02,2.47,3.42,.57,1.4,.86,3.12,.86,5.16,0,3.13-.75,5.53-2.24,7.19-1.49,1.66-3.5,2.78-6.03,3.35l7.63,13.52c.27,.48,.58,.76,.95,.85,.36,.1,.7,.14,1,.14v1.28h-10.73v-1.28c.34,0,.64-.07,.89-.21,.25-.14,.37-.33,.37-.57s-.08-.51-.23-.82c-.15-.31-.38-.72-.69-1.25l-6.32-11.1h-8.21v12.67c0,.43,.12,.75,.37,.96,.25,.21,.7,.32,1.35,.32v1.28h-9.93v-1.28c1.11,0,1.66-.43,1.66-1.28v-32.32c0-.85-.55-1.28-1.66-1.28v-1.28h19.63Zm-1.49,16.66c1.38,0,2.53-.13,3.44-.39,.92-.26,1.64-.63,2.18-1.1,.54-.47,.92-1.03,1.15-1.67s.34-1.34,.34-2.1-.12-1.46-.34-2.1-.61-1.2-1.15-1.67c-.54-.47-1.26-.84-2.18-1.1-.92-.26-2.07-.39-3.44-.39h-9.93v10.54h9.93Z"/><path class="cls-2" d="M1750.32,470.48c.61,0,1.03-.08,1.26-.25,.23-.17,.34-.44,.34-.82v-26.62c0-.38-.11-.65-.34-.82-.23-.17-.65-.25-1.26-.25v-1.28h8.73v1.28c-1.07,0-1.61,.36-1.61,1.07v26.62c0,.71,.54,1.07,1.61,1.07v1.28h-8.73v-1.28Z"/><path class="cls-2" d="M1774.95,469.41c0,.71,.36,1.07,1.09,1.07v1.28h-7.52v-1.28c.61,0,.92-.36,.92-1.07v-26.62c0-.71-.31-1.07-.92-1.07v-1.28h7.52v1.28c-.73,0-1.09,.36-1.09,1.07v11.6c1.3-1.33,2.64-2.67,4.02-4.02,1.38-1.35,2.62-2.6,3.73-3.74,1.11-1.14,2.03-2.1,2.76-2.88,.73-.78,1.09-1.27,1.09-1.46,0-.24-.11-.43-.32-.57-.21-.14-.41-.21-.6-.21v-1.07h9.47v1.28c-.46,.19-1.15,.74-2.07,1.64l-9.59,9.61,9.07,13.95c.46,.71,.96,1.44,1.49,2.17,.54,.74,1.07,1.2,1.61,1.39v1.28h-8.5v-1.28c.42,0,.63-.14,.63-.43,0-.19-.09-.45-.26-.78-.17-.33-.51-.85-1-1.57l-7.06-10.68-4.48,4.41v7.97Z"/><path class="cls-2" d="M1808.65,441.72c-.84,0-1.26,.36-1.26,1.07v16.35c0,2.28,.67,4.12,2.01,5.5,1.34,1.38,3.39,2.07,6.14,2.07s4.8-.69,6.14-2.07c1.34-1.38,2.01-3.21,2.01-5.5v-16.35c0-.71-.48-1.07-1.44-1.07v-1.28h7.98v1.28c-.84,0-1.26,.36-1.26,1.07v18.01c0,1.47-.27,2.88-.8,4.24-.54,1.35-1.35,2.55-2.44,3.59-1.09,1.04-2.49,1.86-4.19,2.46-1.7,.59-3.7,.89-6,.89s-4.3-.3-6-.89c-1.7-.59-3.1-1.41-4.19-2.46-1.09-1.04-1.9-2.24-2.44-3.59-.54-1.35-.8-2.76-.8-4.24v-18.01c0-.38-.12-.65-.34-.82-.23-.17-.67-.25-1.32-.25v-1.28h8.21v1.28Z"/></g><rect class="cls-7" x="1683.93" y="321.84" width="635" height="48"/><rect class="cls-7" x="1683.93" y="294.84" width="635" height="10"/><rect class="cls-7" x="1683.93" y="456.84" width="635" height="9"/></g><g><path d="M3132.22,225.58c-2.14-.88-4.16-2.16-6.02-3.81-1.78-1.55-3.5-4.06-5.08-7.35l-32.6-72.32c3.81-1.73,7.56-3.93,11.2-6.56,5.05-3.64,9.7-8.47,13.81-14.35,4.09-5.84,7.42-12.79,9.88-20.65s3.71-16.91,3.71-26.9c0-26.4-6.38-45.51-18.97-56.81-12.47-11.17-29.85-16.83-51.65-16.83h-101.18V18.11h4.25c1.11,0,2.07,0,2.07,3.76V221.5c0,3.76-.96,3.76-2.07,3.76h-4.25v18.11h55.21v-18.11h-4.25c-.29,0-.89-.24-1.71-.91-.45-.38-.71-1.41-.71-2.85v-72.08h41.78l26.63,60.45,.04,.1c4.02,8.55,4.87,12.73,4.87,14.74,0,.23-.02,.41-.03,.54-.08,0-.18,.01-.29,.01h-4.25v18.11h62.24v-16.7l-2.63-1.09Zm-76.43-124.16h-51.23V48h51.23c10.76,0,18.59,2.22,23.25,6.59,4.66,4.37,6.92,10.25,6.92,17.99,0,19.67-9.59,28.84-30.17,28.84Z"/><path d="M3226.15,21.87V221.5c0,1.76,0,3.76,5.58,3.76h4.25v18.11h-61.88v-18.11h4.25c3.96,0,4.89-.79,4.9-.79,.33-.3,.68-1.23,.68-2.97V21.87c0-1.74-.35-2.67-.68-2.97,0,0-.24-.2-.97-.4-.73-.19-1.95-.39-3.93-.39h-4.25V0h61.88V18.11h-4.25c-5.58,0-5.58,2-5.58,3.76Z"/><path d="M3459.68,226.72v16.65h-60.48v-18.11h3.71c-.16-.69-.47-1.71-1.09-3.17-.98-2.32-2.98-6.12-5.93-11.29l-40.24-74.61-22.4,27.06v58.25c0,3.76,1.07,3.76,2.43,3.76h4.25v18.11h-54.51v-18.11h4.25c.55,0,1.37,0,1.37-3.76V21.87c0-3.76-.82-3.76-1.37-3.76h-4.25V0h54.51V18.11h-4.25c-1.36,0-2.43,0-2.43,3.76V96.8c5.6-6.92,11.32-13.88,17.06-20.8,8.3-9.98,15.96-19.38,22.77-27.96,6.75-8.48,12.4-15.73,16.8-21.54,4.43-5.85,5.52-8.02,5.79-8.68-.05-.38-.19-.53-.38-.69-.67-.56-1.01-.62-1.01-.62h-4.25l.04-4.25V0h66.45V16.47l-2.33,1.18c-1.28,.65-4.45,2.97-11.3,11.21l-56.84,69.84,54.17,102.13c2.8,5.33,5.84,10.74,9.03,16.1,3.48,5.87,6.2,7.96,7.86,8.68l2.57,1.11Z"/><path d="M3671.44,0V18.11h-4.26c-2.6,0-3.47,.54-3.47,3.76V156.92c0,11.41-1.72,22.54-5.12,33.06-3.45,10.65-8.74,20.21-15.74,28.41-7.06,8.3-16.22,14.88-27.2,19.57-10.89,4.65-23.8,7.01-38.37,7.01s-27.48-2.36-38.37-7.01c-10.97-4.69-20.13-11.27-27.2-19.57-7-8.21-12.3-17.77-15.73-28.41-3.4-10.5-5.12-21.63-5.12-33.06V21.87c0-1.74-.36-2.67-.69-2.97,0,0-.26-.2-1.04-.4-.79-.19-2.1-.39-4.2-.39h-4.26V0h58.72V18.14h-4.25c-2.6,0-3.47,.54-3.47,3.78v122.57c0,16.07,3.83,29.05,11.37,38.57,7.41,9.36,18.61,13.91,34.24,13.91s26.83-4.55,34.25-13.91c7.54-9.53,11.37-22.51,11.37-38.57V21.92c0-2.29-.32-3.78-4.53-3.78h-4.25V0h57.32Z"/></g></svg>